<svg xmlns="http://www.w3.org/2000/svg" xmlns:xlink="http://www.w3.org/1999/xlink" contentStyleType="text/css" data-diagram-type="CLASS" height="631px" preserveAspectRatio="none" style="width:635px;height:631px;background:#FFFFFF;" version="1.1" viewBox="0 0 635 631" width="635px" zoomAndPan="magnify"><defs/><g><!--class Personagem--><g id="elem_Personagem"><rect codeLine="2" fill="#F1F1F1" height="129.4844" id="Personagem" rx="2.5" ry="2.5" style="stroke:#181818;stroke-width:0.5;" width="237.9961" x="285.5" y="148"/><ellipse cx="356.6177" cy="164" fill="#ADD1B2" rx="11" ry="11" style="stroke:#181818;stroke-width:1;"/><path d="M359.5864,169.6406 Q359.0083,169.9375 358.3677,170.0781 Q357.7271,170.2344 357.0239,170.2344 Q354.5239,170.2344 353.1958,168.5938 Q351.8833,166.9375 351.8833,163.8125 Q351.8833,160.6875 353.1958,159.0313 Q354.5239,157.375 357.0239,157.375 Q357.7271,157.375 358.3677,157.5313 Q359.0239,157.6875 359.5864,157.9844 L359.5864,160.7031 Q358.9614,160.125 358.3677,159.8594 Q357.7739,159.5781 357.1489,159.5781 Q355.8052,159.5781 355.1177,160.6563 Q354.4302,161.7188 354.4302,163.8125 Q354.4302,165.9063 355.1177,166.9844 Q355.8052,168.0469 357.1489,168.0469 Q357.7739,168.0469 358.3677,167.7813 Q358.9614,167.5 359.5864,166.9219 L359.5864,169.6406 Z " fill="#000000"/><text fill="#000000" font-family="sans-serif" font-size="14" lengthAdjust="spacing" textLength="87.2607" x="377.1177" y="168.8467">Personagem</text><line style="stroke:#181818;stroke-width:0.5;" x1="286.5" x2="522.4961" y1="180" y2="180"/><rect fill="transparent" height="6" style="stroke:#C82930;stroke-width:1;" width="6" x="293.5" y="190.6484"/><text fill="#000000" font-family="sans-serif" font-size="14" lengthAdjust="spacing" textLength="67.3955" x="305.5" y="196.9951">nome: str</text><rect fill="transparent" height="6" style="stroke:#C82930;stroke-width:1;" width="6" x="293.5" y="206.9453"/><text fill="#000000" font-family="sans-serif" font-size="14" lengthAdjust="spacing" textLength="57.0596" x="305.5" y="213.292">vida: int</text><rect fill="transparent" height="6" style="stroke:#C82930;stroke-width:1;" width="6" x="293.5" y="223.2422"/><text fill="#000000" font-family="sans-serif" font-size="14" lengthAdjust="spacing" textLength="67.0879" x="305.5" y="229.5889">mana: int</text><rect fill="transparent" height="6" style="stroke:#C82930;stroke-width:1;" width="6" x="293.5" y="239.5391"/><text fill="#000000" font-family="sans-serif" font-size="14" lengthAdjust="spacing" textLength="151.0332" x="305.5" y="245.8857">inventario: Inventario</text><rect fill="transparent" height="6" style="stroke:#C82930;stroke-width:1;" width="6" x="293.5" y="255.8359"/><text fill="#000000" font-family="sans-serif" font-size="14" lengthAdjust="spacing" textLength="211.9961" x="305.5" y="262.1826">habilidades: List&lt;Habilidade&gt;</text><line style="stroke:#181818;stroke-width:0.5;" x1="286.5" x2="522.4961" y1="269.4844" y2="269.4844"/></g><!--class Inventario--><g id="elem_Inventario"><rect codeLine="10" fill="#F1F1F1" height="64.2969" id="Inventario" rx="2.5" ry="2.5" style="stroke:#181818;stroke-width:0.5;" width="149.1289" x="241" y="370.5"/><ellipse cx="276.7343" cy="386.5" fill="#ADD1B2" rx="11" ry="11" style="stroke:#181818;stroke-width:1;"/><path d="M279.703,392.1406 Q279.1249,392.4375 278.4843,392.5781 Q277.8437,392.7344 277.1405,392.7344 Q274.6405,392.7344 273.3124,391.0938 Q271.9999,389.4375 271.9999,386.3125 Q271.9999,383.1875 273.3124,381.5313 Q274.6405,379.875 277.1405,379.875 Q277.8437,379.875 278.4843,380.0313 Q279.1405,380.1875 279.703,380.4844 L279.703,383.2031 Q279.078,382.625 278.4843,382.3594 Q277.8905,382.0781 277.2655,382.0781 Q275.9218,382.0781 275.2343,383.1563 Q274.5468,384.2188 274.5468,386.3125 Q274.5468,388.4063 275.2343,389.4844 Q275.9218,390.5469 277.2655,390.5469 Q277.8905,390.5469 278.4843,390.2813 Q279.078,390 279.703,389.4219 L279.703,392.1406 Z " fill="#000000"/><text fill="#000000" font-family="sans-serif" font-size="14" lengthAdjust="spacing" textLength="71.0527" x="295.3419" y="391.3467">Inventario</text><line style="stroke:#181818;stroke-width:0.5;" x1="242" x2="389.1289" y1="402.5" y2="402.5"/><rect fill="transparent" height="6" style="stroke:#C82930;stroke-width:1;" width="6" x="249" y="413.1484"/><text fill="#000000" font-family="sans-serif" font-size="14" lengthAdjust="spacing" textLength="123.1289" x="261" y="419.4951">itens: List&lt;Item&gt;</text><line style="stroke:#181818;stroke-width:0.5;" x1="242" x2="389.1289" y1="426.7969" y2="426.7969"/></g><!--class Item--><g id="elem_Item"><rect codeLine="14" fill="#F1F1F1" height="96.8906" id="Item" rx="2.5" ry="2.5" style="stroke:#181818;stroke-width:0.5;" width="94.127" x="114.5" y="528"/><ellipse cx="143.116" cy="544" fill="#ADD1B2" rx="11" ry="11" style="stroke:#181818;stroke-width:1;"/><path d="M146.0848,549.6406 Q145.5066,549.9375 144.866,550.0781 Q144.2254,550.2344 143.5223,550.2344 Q141.0223,550.2344 139.6941,548.5938 Q138.3816,546.9375 138.3816,543.8125 Q138.3816,540.6875 139.6941,539.0313 Q141.0223,537.375 143.5223,537.375 Q144.2254,537.375 144.866,537.5313 Q145.5223,537.6875 146.0848,537.9844 L146.0848,540.7031 Q145.4598,540.125 144.866,539.8594 Q144.2723,539.5781 143.6473,539.5781 Q142.3035,539.5781 141.616,540.6563 Q140.9285,541.7188 140.9285,543.8125 Q140.9285,545.9063 141.616,546.9844 Q142.3035,548.0469 143.6473,548.0469 Q144.2723,548.0469 144.866,547.7813 Q145.4598,547.5 146.0848,546.9219 L146.0848,549.6406 Z " fill="#000000"/><text fill="#000000" font-family="sans-serif" font-size="14" lengthAdjust="spacing" textLength="31.8691" x="160.1418" y="548.8467">Item</text><line style="stroke:#181818;stroke-width:0.5;" x1="115.5" x2="207.627" y1="560" y2="560"/><rect fill="transparent" height="6" style="stroke:#C82930;stroke-width:1;" width="6" x="122.5" y="570.6484"/><text fill="#000000" font-family="sans-serif" font-size="14" lengthAdjust="spacing" textLength="67.3955" x="134.5" y="576.9951">nome: str</text><rect fill="transparent" height="6" style="stroke:#C82930;stroke-width:1;" width="6" x="122.5" y="586.9453"/><text fill="#000000" font-family="sans-serif" font-size="14" lengthAdjust="spacing" textLength="54.5371" x="134.5" y="593.292">tipo: str</text><rect fill="transparent" height="6" style="stroke:#C82930;stroke-width:1;" width="6" x="122.5" y="603.2422"/><text fill="#000000" font-family="sans-serif" font-size="14" lengthAdjust="spacing" textLength="68.127" x="134.5" y="609.5889">poder: int</text><line style="stroke:#181818;stroke-width:0.5;" x1="115.5" x2="207.627" y1="616.8906" y2="616.8906"/></g><!--class Habilidade--><g id="elem_Habilidade"><rect codeLine="20" fill="#F1F1F1" height="96.8906" id="Habilidade" rx="2.5" ry="2.5" style="stroke:#181818;stroke-width:0.5;" width="138.0068" x="425.5" y="354"/><ellipse cx="454.6205" cy="370" fill="#ADD1B2" rx="11" ry="11" style="stroke:#181818;stroke-width:1;"/><path d="M457.5893,375.6406 Q457.0111,375.9375 456.3705,376.0781 Q455.7299,376.2344 455.0268,376.2344 Q452.5268,376.2344 451.1986,374.5938 Q449.8861,372.9375 449.8861,369.8125 Q449.8861,366.6875 451.1986,365.0313 Q452.5268,363.375 455.0268,363.375 Q455.7299,363.375 456.3705,363.5313 Q457.0268,363.6875 457.5893,363.9844 L457.5893,366.7031 Q456.9643,366.125 456.3705,365.8594 Q455.7768,365.5781 455.1518,365.5781 Q453.808,365.5781 453.1205,366.6563 Q452.433,367.7188 452.433,369.8125 Q452.433,371.9063 453.1205,372.9844 Q453.808,374.0469 455.1518,374.0469 Q455.7768,374.0469 456.3705,373.7813 Q456.9643,373.5 457.5893,372.9219 L457.5893,375.6406 Z " fill="#000000"/><text fill="#000000" font-family="sans-serif" font-size="14" lengthAdjust="spacing" textLength="74.6279" x="471.7584" y="374.8467">Habilidade</text><line style="stroke:#181818;stroke-width:0.5;" x1="426.5" x2="562.5068" y1="386" y2="386"/><rect fill="transparent" height="6" style="stroke:#C82930;stroke-width:1;" width="6" x="433.5" y="396.6484"/><text fill="#000000" font-family="sans-serif" font-size="14" lengthAdjust="spacing" textLength="67.3955" x="445.5" y="402.9951">nome: str</text><rect fill="transparent" height="6" style="stroke:#C82930;stroke-width:1;" width="6" x="433.5" y="412.9453"/><text fill="#000000" font-family="sans-serif" font-size="14" lengthAdjust="spacing" textLength="62.3232" x="445.5" y="419.292">dano: int</text><rect fill="transparent" height="6" style="stroke:#C82930;stroke-width:1;" width="6" x="433.5" y="429.2422"/><text fill="#000000" font-family="sans-serif" font-size="14" lengthAdjust="spacing" textLength="112.0068" x="445.5" y="435.5889">custo_mana: int</text><line style="stroke:#181818;stroke-width:0.5;" x1="426.5" x2="562.5068" y1="442.8906" y2="442.8906"/></g><!--class Loja--><g id="elem_Loja"><rect codeLine="26" fill="#F1F1F1" height="64.2969" id="Loja" rx="2.5" ry="2.5" style="stroke:#181818;stroke-width:0.5;" width="199.3662" x="7" y="370.5"/><ellipse cx="88.0161" cy="386.5" fill="#ADD1B2" rx="11" ry="11" style="stroke:#181818;stroke-width:1;"/><path d="M90.9849,392.1406 Q90.4067,392.4375 89.7661,392.5781 Q89.1255,392.7344 88.4224,392.7344 Q85.9224,392.7344 84.5942,391.0938 Q83.2817,389.4375 83.2817,386.3125 Q83.2817,383.1875 84.5942,381.5313 Q85.9224,379.875 88.4224,379.875 Q89.1255,379.875 89.7661,380.0313 Q90.4224,380.1875 90.9849,380.4844 L90.9849,383.2031 Q90.3599,382.625 89.7661,382.3594 Q89.1724,382.0781 88.5474,382.0781 Q87.2036,382.0781 86.5161,383.1563 Q85.8286,384.2188 85.8286,386.3125 Q85.8286,388.4063 86.5161,389.4844 Q87.2036,390.5469 88.5474,390.5469 Q89.1724,390.5469 89.7661,390.2813 Q90.3599,390 90.9849,389.4219 L90.9849,392.1406 Z " fill="#000000"/><text fill="#000000" font-family="sans-serif" font-size="14" lengthAdjust="spacing" textLength="28.834" x="108.5161" y="391.3467">Loja</text><line style="stroke:#181818;stroke-width:0.5;" x1="8" x2="205.3662" y1="402.5" y2="402.5"/><rect fill="transparent" height="6" style="stroke:#C82930;stroke-width:1;" width="6" x="15" y="413.1484"/><text fill="#000000" font-family="sans-serif" font-size="14" lengthAdjust="spacing" textLength="173.3662" x="27" y="419.4951">itens_venda: List&lt;Item&gt;</text><line style="stroke:#181818;stroke-width:0.5;" x1="8" x2="205.3662" y1="426.7969" y2="426.7969"/></g><!--class EngineCombate--><g id="elem_EngineCombate"><rect codeLine="30" fill="#F1F1F1" height="64.2969" id="EngineCombate" rx="2.5" ry="2.5" style="stroke:#181818;stroke-width:0.5;" width="447.8252" x="180.5" y="7"/><ellipse cx="344.3984" cy="23" fill="#ADD1B2" rx="11" ry="11" style="stroke:#181818;stroke-width:1;"/><path d="M347.3672,28.6406 Q346.7891,28.9375 346.1484,29.0781 Q345.5078,29.2344 344.8047,29.2344 Q342.3047,29.2344 340.9766,27.5938 Q339.6641,25.9375 339.6641,22.8125 Q339.6641,19.6875 340.9766,18.0313 Q342.3047,16.375 344.8047,16.375 Q345.5078,16.375 346.1484,16.5313 Q346.8047,16.6875 347.3672,16.9844 L347.3672,19.7031 Q346.7422,19.125 346.1484,18.8594 Q345.5547,18.5781 344.9297,18.5781 Q343.5859,18.5781 342.8984,19.6563 Q342.2109,20.7188 342.2109,22.8125 Q342.2109,24.9063 342.8984,25.9844 Q343.5859,27.0469 344.9297,27.0469 Q345.5547,27.0469 346.1484,26.7813 Q346.7422,26.5 347.3672,25.9219 L347.3672,28.6406 Z " fill="#000000"/><text fill="#000000" font-family="sans-serif" font-size="14" lengthAdjust="spacing" textLength="111.5283" x="364.8984" y="27.8467">EngineCombate</text><line style="stroke:#181818;stroke-width:0.5;" x1="181.5" x2="627.3252" y1="39" y2="39"/><line style="stroke:#181818;stroke-width:0.5;" x1="181.5" x2="627.3252" y1="47" y2="47"/><ellipse cx="191.5" cy="60.6484" fill="#84BE84" rx="3" ry="3" style="stroke:#038048;stroke-width:1;"/><text fill="#000000" font-family="sans-serif" font-size="14" lengthAdjust="spacing" textLength="421.8252" x="200.5" y="63.9951">executar_ataque(atacante: Personagem, alvo: Personagem)</text></g><!--reverse link Personagem to Inventario--><g id="link_Personagem_Inventario"><path codeLine="35" d="M369.2339,287.9953 C354.3539,319.4153 342.22,345.07 330.24,370.36 " fill="transparent" id="Personagem-backto-Inventario" style="stroke:#181818;stroke-width:1;"/><polygon fill="#181818" points="374.37,277.15,368.1868,280.8606,369.2339,287.9953,375.417,284.2847,374.37,277.15" style="stroke:#181818;stroke-width:1;"/><text fill="#000000" font-family="sans-serif" font-size="13" lengthAdjust="spacing" textLength="77.4224" x="361.5" y="320.0669">composi&#231;&#227;o</text></g><!--reverse link Personagem to Habilidade--><g id="link_Personagem_Habilidade"><path codeLine="36" d="M440.1498,287.9745 C452.1798,313.1145 460.59,330.67 471.75,353.97 " fill="transparent" id="Personagem-backto-Habilidade" style="stroke:#181818;stroke-width:1;"/><polygon fill="transparent" points="434.97,277.15,433.9517,284.2888,440.1498,287.9745,441.168,280.8357,434.97,277.15" style="stroke:#181818;stroke-width:1;"/><text fill="#000000" font-family="sans-serif" font-size="13" lengthAdjust="spacing" textLength="68.8467" x="456.5" y="320.0669">agrega&#231;&#227;o</text></g><!--reverse link Inventario to Item--><g id="link_Inventario_Item"><path codeLine="37" d="M279.6045,443.5894 C256.3745,469.5294 230.92,497.97 204.3,527.7 " fill="transparent" id="Inventario-backto-Item" style="stroke:#181818;stroke-width:1;"/><polygon fill="transparent" points="287.61,434.65,280.6275,436.4512,279.6045,443.5894,286.5871,441.7882,287.61,434.65" style="stroke:#181818;stroke-width:1;"/><text fill="#000000" font-family="sans-serif" font-size="13" lengthAdjust="spacing" textLength="68.8467" x="244.5" y="494.0669">agrega&#231;&#227;o</text></g><!--reverse link Loja to Item--><g id="link_Loja_Item"><path codeLine="38" d="M120.117,446.0792 C128.417,472.0192 136.71,497.97 146.21,527.7 " fill="transparent" id="Loja-backto-Item" style="stroke:#181818;stroke-width:1;"/><polygon fill="transparent" points="116.46,434.65,114.4788,441.5836,120.117,446.0792,122.0982,439.1456,116.46,434.65" style="stroke:#181818;stroke-width:1;"/><text fill="#000000" font-family="sans-serif" font-size="13" lengthAdjust="spacing" textLength="68.8467" x="137.5" y="494.0669">agrega&#231;&#227;o</text></g><!--link EngineCombate to Personagem--><g id="link_EngineCombate_Personagem"><path codeLine="39" d="M404.5,71.06 C404.5,92.49 404.5,115.74 404.5,142 " fill="transparent" id="EngineCombate-to-Personagem" style="stroke:#181818;stroke-width:1;stroke-dasharray:7.0,7.0;"/><polygon fill="#181818" points="404.5,148,408.5,139,404.5,143,400.5,139,404.5,148" style="stroke:#181818;stroke-width:1;"/><text fill="#000000" font-family="sans-serif" font-size="13" lengthAdjust="spacing" textLength="83.9541" x="405.5" y="114.0669">depend&#234;ncia</text></g><!--SRC=[TL9BJiGm3Dtt5DuDlyu18ZGRG6AaMI0kCFAafXWrTcao8oJ4QLWWSOsv64aBRKOggyJEU_RpYnTmIqyiVFmwVYfK1BP1xyb3sx5ORf5zqQVWWJglWZKvU2y0Ib571dpeKd3W2WsmX1Gub2bWEP04x5WDhCTxUdd67JUHLv4ti64Vhk_7pAhuA7xxJgIXBmUIFy8waCkXOLPSu5R7eDMAka7To9lwph0h51sdiNiVT3iDE9ROw0jc-hPHSt9aJkMTr2nqesw7OMXuIMzazt76BGPytTDPF2nAY28crwy0cuFccVDKSm6FrA3bc7BH9_L5zb4NPPdxPy2gQzKFlvq3DG8p5mnWtL6D0owha72zowU8Vlf_tax7NIvN-IQPk79jjEhu7PSDVm00]--></g></svg>