<svg xmlns="http://www.w3.org/2000/svg" xmlns:xlink="http://www.w3.org/1999/xlink" contentStyleType="text/css" data-diagram-type="CLASS" height="264px" preserveAspectRatio="none" style="width:185px;height:264px;background:#FFFFFF;" version="1.1" viewBox="0 0 185 264" width="185px" zoomAndPan="magnify"><defs/><g><!--class Personagem--><g id="elem_Personagem"><rect codeLine="1" fill="#F1F1F1" height="243.5625" id="Personagem" rx="2.5" ry="2.5" style="stroke:#181818;stroke-width:0.5;" width="164.5986" x="7" y="7"/><ellipse cx="42.4021" cy="23" fill="#ADD1B2" rx="11" ry="11" style="stroke:#181818;stroke-width:1;"/><path d="M45.3708,28.6406 Q44.7927,28.9375 44.1521,29.0781 Q43.5114,29.2344 42.8083,29.2344 Q40.3083,29.2344 38.9802,27.5938 Q37.6677,25.9375 37.6677,22.8125 Q37.6677,19.6875 38.9802,18.0313 Q40.3083,16.375 42.8083,16.375 Q43.5114,16.375 44.1521,16.5313 Q44.8083,16.6875 45.3708,16.9844 L45.3708,19.7031 Q44.7458,19.125 44.1521,18.8594 Q43.5583,18.5781 42.9333,18.5781 Q41.5896,18.5781 40.9021,19.6563 Q40.2146,20.7188 40.2146,22.8125 Q40.2146,24.9063 40.9021,25.9844 Q41.5896,27.0469 42.9333,27.0469 Q43.5583,27.0469 44.1521,26.7813 Q44.7458,26.5 45.3708,25.9219 L45.3708,28.6406 Z " fill="#000000"/><text fill="#000000" font-family="sans-serif" font-size="14" lengthAdjust="spacing" textLength="87.2607" x="60.9358" y="27.8467">Personagem</text><line style="stroke:#181818;stroke-width:0.5;" x1="8" x2="170.5986" y1="39" y2="39"/><rect fill="transparent" height="6" style="stroke:#C82930;stroke-width:1;" width="6" x="15" y="49.6484"/><text fill="#000000" font-family="sans-serif" font-size="14" lengthAdjust="spacing" textLength="80.835" x="27" y="55.9951">jogador: str</text><rect fill="transparent" height="6" style="stroke:#C82930;stroke-width:1;" width="6" x="15" y="65.9453"/><text fill="#000000" font-family="sans-serif" font-size="14" lengthAdjust="spacing" textLength="67.3955" x="27" y="72.292">nome: str</text><rect fill="transparent" height="6" style="stroke:#C82930;stroke-width:1;" width="6" x="15" y="82.2422"/><text fill="#000000" font-family="sans-serif" font-size="14" lengthAdjust="spacing" textLength="71.0732" x="27" y="88.5889">classe: str</text><rect fill="transparent" height="6" style="stroke:#C82930;stroke-width:1;" width="6" x="15" y="98.5391"/><text fill="#000000" font-family="sans-serif" font-size="14" lengthAdjust="spacing" textLength="60.71" x="27" y="104.8857">level: int</text><rect fill="transparent" height="6" style="stroke:#C82930;stroke-width:1;" width="6" x="15" y="114.8359"/><text fill="#000000" font-family="sans-serif" font-size="14" lengthAdjust="spacing" textLength="57.0596" x="27" y="121.1826">vida: int</text><rect fill="transparent" height="6" style="stroke:#C82930;stroke-width:1;" width="6" x="15" y="131.1328"/><text fill="#000000" font-family="sans-serif" font-size="14" lengthAdjust="spacing" textLength="70.9912" x="27" y="137.4795">magia: int</text><rect fill="transparent" height="6" style="stroke:#C82930;stroke-width:1;" width="6" x="15" y="147.4297"/><text fill="#000000" font-family="sans-serif" font-size="14" lengthAdjust="spacing" textLength="62.9453" x="27" y="153.7764">forca: int</text><rect fill="transparent" height="6" style="stroke:#C82930;stroke-width:1;" width="6" x="15" y="163.7266"/><text fill="#000000" font-family="sans-serif" font-size="14" lengthAdjust="spacing" textLength="108.6025" x="27" y="170.0732">inteligencia: int</text><rect fill="transparent" height="6" style="stroke:#C82930;stroke-width:1;" width="6" x="15" y="180.0234"/><text fill="#000000" font-family="sans-serif" font-size="14" lengthAdjust="spacing" textLength="91.5195" x="27" y="186.3701">agilidade: int</text><rect fill="transparent" height="6" style="stroke:#C82930;stroke-width:1;" width="6" x="15" y="196.3203"/><text fill="#000000" font-family="sans-serif" font-size="14" lengthAdjust="spacing" textLength="63.1367" x="27" y="202.667">sorte: int</text><line style="stroke:#181818;stroke-width:0.5;" x1="8" x2="170.5986" y1="209.9688" y2="209.9688"/><ellipse cx="18" cy="223.6172" fill="#84BE84" rx="3" ry="3" style="stroke:#038048;stroke-width:1;"/><text fill="#000000" font-family="sans-serif" font-size="14" lengthAdjust="spacing" textLength="138.5986" x="27" y="226.9639">habilidade_1(): void</text><ellipse cx="18" cy="239.9141" fill="#84BE84" rx="3" ry="3" style="stroke:#038048;stroke-width:1;"/><text fill="#000000" font-family="sans-serif" font-size="14" lengthAdjust="spacing" textLength="138.5986" x="27" y="243.2607">habilidade_2(): void</text></g><!--SRC=[POmz2e8n38PtJv5H4GSTUmfl8B6DDT8sa9Gkujs_2aLQp9JtUNzyGZEuafeKZ9JXlOD-9tX9n23gmAeEL2JJhFstkv14ZP83BdM0nW5ddJ7o0XwYVW7zeyIHYb-3lPZwMA0PccYTm16UU1-nstb_SD24mxzr-LcV3G00]--></g></svg>