<svg xmlns="http://www.w3.org/2000/svg" xmlns:xlink="http://www.w3.org/1999/xlink" contentStyleType="text/css" data-diagram-type="CLASS" height="414px" preserveAspectRatio="none" style="width:738px;height:414px;background:#FFFFFF;" version="1.1" viewBox="0 0 738 414" width="738px" zoomAndPan="magnify"><defs/><g><!--class Jogador--><g id="elem_Jogador"><rect codeLine="1" fill="#F1F1F1" height="227.2656" id="Jogador" rx="2.5" ry="2.5" style="stroke:#181818;stroke-width:0.5;" width="424.624" x="157" y="7"/><ellipse cx="338.3779" cy="23" fill="#ADD1B2" rx="11" ry="11" style="stroke:#181818;stroke-width:1;"/><path d="M341.3467,28.6406 Q340.7686,28.9375 340.1279,29.0781 Q339.4873,29.2344 338.7842,29.2344 Q336.2842,29.2344 334.9561,27.5938 Q333.6436,25.9375 333.6436,22.8125 Q333.6436,19.6875 334.9561,18.0313 Q336.2842,16.375 338.7842,16.375 Q339.4873,16.375 340.1279,16.5313 Q340.7842,16.6875 341.3467,16.9844 L341.3467,19.7031 Q340.7217,19.125 340.1279,18.8594 Q339.5342,18.5781 338.9092,18.5781 Q337.5654,18.5781 336.8779,19.6563 Q336.1904,20.7188 336.1904,22.8125 Q336.1904,24.9063 336.8779,25.9844 Q337.5654,27.0469 338.9092,27.0469 Q339.5342,27.0469 340.1279,26.7813 Q340.7217,26.5 341.3467,25.9219 L341.3467,28.6406 Z " fill="#000000"/><text fill="#000000" font-family="sans-serif" font-size="14" lengthAdjust="spacing" textLength="53.3682" x="358.8779" y="27.8467">Jogador</text><line style="stroke:#181818;stroke-width:0.5;" x1="158" x2="580.624" y1="39" y2="39"/><rect fill="transparent" height="6" style="stroke:#C82930;stroke-width:1;" width="6" x="165" y="49.6484"/><text fill="#000000" font-family="sans-serif" font-size="14" lengthAdjust="spacing" textLength="67.3955" x="177" y="55.9951">nome: str</text><rect fill="transparent" height="6" style="stroke:#C82930;stroke-width:1;" width="6" x="165" y="65.9453"/><text fill="#000000" font-family="sans-serif" font-size="14" lengthAdjust="spacing" textLength="115.4111" x="177" y="72.292">personagem: str</text><rect fill="transparent" height="6" style="stroke:#C82930;stroke-width:1;" width="6" x="165" y="82.2422"/><text fill="#000000" font-family="sans-serif" font-size="14" lengthAdjust="spacing" textLength="60.71" x="177" y="88.5889">level: int</text><rect fill="transparent" height="6" style="stroke:#C82930;stroke-width:1;" width="6" x="165" y="98.5391"/><text fill="#000000" font-family="sans-serif" font-size="14" lengthAdjust="spacing" textLength="57.0596" x="177" y="104.8857">vida: int</text><rect fill="transparent" height="6" style="stroke:#C82930;stroke-width:1;" width="6" x="165" y="114.8359"/><text fill="#000000" font-family="sans-serif" font-size="14" lengthAdjust="spacing" textLength="70.9912" x="177" y="121.1826">magia: int</text><ellipse cx="168" cy="134.1328" fill="transparent" rx="3" ry="3" style="stroke:#038048;stroke-width:1;"/><text fill="#000000" font-family="sans-serif" font-size="14" lengthAdjust="spacing" text-decoration="underline" textLength="71.0732" x="177" y="137.4795">classe: str</text><line style="stroke:#181818;stroke-width:0.5;" x1="158" x2="580.624" y1="144.7813" y2="144.7813"/><ellipse cx="168" cy="158.4297" fill="#84BE84" rx="3" ry="3" style="stroke:#038048;stroke-width:1;"/><text fill="#000000" font-family="sans-serif" font-size="14" lengthAdjust="spacing" textLength="398.624" x="177" y="161.7764">__init__(nome: str, personagem: str, vida: int, magia: int)</text><ellipse cx="168" cy="174.7266" fill="#84BE84" rx="3" ry="3" style="stroke:#038048;stroke-width:1;"/><text fill="#000000" font-family="sans-serif" font-size="14" lengthAdjust="spacing" textLength="94.3975" x="177" y="178.0732">atacar(): void</text><ellipse cx="168" cy="191.0234" fill="#84BE84" rx="3" ry="3" style="stroke:#038048;stroke-width:1;"/><text fill="#000000" font-family="sans-serif" font-size="14" lengthAdjust="spacing" textLength="107.1807" x="177" y="194.3701">especial(): void</text><ellipse cx="168" cy="207.3203" fill="#84BE84" rx="3" ry="3" style="stroke:#038048;stroke-width:1;"/><text fill="#000000" font-family="sans-serif" font-size="14" lengthAdjust="spacing" textLength="126.1572" x="177" y="210.667">apresentar(): void</text><ellipse cx="168" cy="223.6172" fill="#84BE84" rx="3" ry="3" style="stroke:#038048;stroke-width:1;"/><text fill="#000000" font-family="sans-serif" font-size="14" lengthAdjust="spacing" textLength="191.1465" x="177" y="226.9639">provocar(inimigo: str): void</text></g><!--class Barbaro--><g id="elem_Barbaro"><rect codeLine="16" fill="#F1F1F1" height="113.1875" id="Barbaro" rx="2.5" ry="2.5" style="stroke:#181818;stroke-width:0.5;" width="344.7324" x="7" y="294"/><ellipse cx="147.2529" cy="310" fill="#ADD1B2" rx="11" ry="11" style="stroke:#181818;stroke-width:1;"/><path d="M150.2217,315.6406 Q149.6436,315.9375 149.0029,316.0781 Q148.3623,316.2344 147.6592,316.2344 Q145.1592,316.2344 143.8311,314.5938 Q142.5186,312.9375 142.5186,309.8125 Q142.5186,306.6875 143.8311,305.0313 Q145.1592,303.375 147.6592,303.375 Q148.3623,303.375 149.0029,303.5313 Q149.6592,303.6875 150.2217,303.9844 L150.2217,306.7031 Q149.5967,306.125 149.0029,305.8594 Q148.4092,305.5781 147.7842,305.5781 Q146.4404,305.5781 145.7529,306.6563 Q145.0654,307.7188 145.0654,309.8125 Q145.0654,311.9063 145.7529,312.9844 Q146.4404,314.0469 147.7842,314.0469 Q148.4092,314.0469 149.0029,313.7813 Q149.5967,313.5 150.2217,312.9219 L150.2217,315.6406 Z " fill="#000000"/><text fill="#000000" font-family="sans-serif" font-size="14" lengthAdjust="spacing" textLength="55.7266" x="167.7529" y="314.8467">Barbaro</text><line style="stroke:#181818;stroke-width:0.5;" x1="8" x2="350.7324" y1="326" y2="326"/><ellipse cx="18" cy="339.6484" fill="transparent" rx="3" ry="3" style="stroke:#038048;stroke-width:1;"/><text fill="#000000" font-family="sans-serif" font-size="14" lengthAdjust="spacing" text-decoration="underline" textLength="71.0732" x="27" y="342.9951">classe: str</text><line style="stroke:#181818;stroke-width:0.5;" x1="8" x2="350.7324" y1="350.2969" y2="350.2969"/><ellipse cx="18" cy="363.9453" fill="#84BE84" rx="3" ry="3" style="stroke:#038048;stroke-width:1;"/><text fill="#000000" font-family="sans-serif" font-size="14" lengthAdjust="spacing" textLength="318.7324" x="27" y="367.292">__init__(nome: str, personagem: str, vida: int)</text><ellipse cx="18" cy="380.2422" fill="#84BE84" rx="3" ry="3" style="stroke:#038048;stroke-width:1;"/><text fill="#000000" font-family="sans-serif" font-size="14" lengthAdjust="spacing" textLength="94.3975" x="27" y="383.5889">atacar(): void</text><ellipse cx="18" cy="396.5391" fill="#84BE84" rx="3" ry="3" style="stroke:#038048;stroke-width:1;"/><text fill="#000000" font-family="sans-serif" font-size="14" lengthAdjust="spacing" textLength="107.1807" x="27" y="399.8857">especial(): void</text></g><!--class Bruxa--><g id="elem_Bruxa"><rect codeLine="23" fill="#F1F1F1" height="113.1875" id="Bruxa" rx="2.5" ry="2.5" style="stroke:#181818;stroke-width:0.5;" width="344.7324" x="387" y="294"/><ellipse cx="534.5674" cy="310" fill="#ADD1B2" rx="11" ry="11" style="stroke:#181818;stroke-width:1;"/><path d="M537.5361,315.6406 Q536.958,315.9375 536.3174,316.0781 Q535.6768,316.2344 534.9736,316.2344 Q532.4736,316.2344 531.1455,314.5938 Q529.833,312.9375 529.833,309.8125 Q529.833,306.6875 531.1455,305.0313 Q532.4736,303.375 534.9736,303.375 Q535.6768,303.375 536.3174,303.5313 Q536.9736,303.6875 537.5361,303.9844 L537.5361,306.7031 Q536.9111,306.125 536.3174,305.8594 Q535.7236,305.5781 535.0986,305.5781 Q533.7549,305.5781 533.0674,306.6563 Q532.3799,307.7188 532.3799,309.8125 Q532.3799,311.9063 533.0674,312.9844 Q533.7549,314.0469 535.0986,314.0469 Q535.7236,314.0469 536.3174,313.7813 Q536.9111,313.5 537.5361,312.9219 L537.5361,315.6406 Z " fill="#000000"/><text fill="#000000" font-family="sans-serif" font-size="14" lengthAdjust="spacing" textLength="41.0977" x="555.0674" y="314.8467">Bruxa</text><line style="stroke:#181818;stroke-width:0.5;" x1="388" x2="730.7324" y1="326" y2="326"/><ellipse cx="398" cy="339.6484" fill="transparent" rx="3" ry="3" style="stroke:#038048;stroke-width:1;"/><text fill="#000000" font-family="sans-serif" font-size="14" lengthAdjust="spacing" text-decoration="underline" textLength="71.0732" x="407" y="342.9951">classe: str</text><line style="stroke:#181818;stroke-width:0.5;" x1="388" x2="730.7324" y1="350.2969" y2="350.2969"/><ellipse cx="398" cy="363.9453" fill="#84BE84" rx="3" ry="3" style="stroke:#038048;stroke-width:1;"/><text fill="#000000" font-family="sans-serif" font-size="14" lengthAdjust="spacing" textLength="318.7324" x="407" y="367.292">__init__(nome: str, personagem: str, vida: int)</text><ellipse cx="398" cy="380.2422" fill="#84BE84" rx="3" ry="3" style="stroke:#038048;stroke-width:1;"/><text fill="#000000" font-family="sans-serif" font-size="14" lengthAdjust="spacing" textLength="94.3975" x="407" y="383.5889">atacar(): void</text><ellipse cx="398" cy="396.5391" fill="#84BE84" rx="3" ry="3" style="stroke:#038048;stroke-width:1;"/><text fill="#000000" font-family="sans-serif" font-size="14" lengthAdjust="spacing" textLength="107.1807" x="407" y="399.8857">especial(): void</text></g><!--reverse link Jogador to Barbaro--><g id="link_Jogador_Barbaro"><path codeLine="30" d="M264.0906,247.9913 C246.8006,268.7513 240.97,275.73 225.87,293.85 " fill="transparent" id="Jogador-backto-Barbaro" style="stroke:#181818;stroke-width:1;"/><polygon fill="transparent" points="275.61,234.16,259.4802,244.1515,268.701,251.8311,275.61,234.16" style="stroke:#181818;stroke-width:1;"/></g><!--reverse link Jogador to Bruxa--><g id="link_Jogador_Bruxa"><path codeLine="31" d="M474.9094,247.9913 C492.1994,268.7513 498.03,275.73 513.13,293.85 " fill="transparent" id="Jogador-backto-Bruxa" style="stroke:#181818;stroke-width:1;"/><polygon fill="transparent" points="463.39,234.16,470.299,251.8311,479.5198,244.1515,463.39,234.16" style="stroke:#181818;stroke-width:1;"/></g><!--SRC=[pP912eD034NtdY9BHRs0TDLbBo7f62IW4ybCfM2zUrN6AfOksbLdbv-GztyOqw1pS94QAr4O8fXU3bPQAi1v3NL7wiHYJUrURQYdfW2sFWWzLxYlMwnv9mpEesSpGWfcnWR4qakXBDcoBylu1S-Et6mZPBlbITY07Wrgd1JG2rT19DUHOMmECdPAZgn_c-zKUfdNJ6vQhcK1hoDZ52tEuOnwHPLmi0_1VidrNPRDZzxk-0TkrezqUkJvUgI3E3jz0W00]--></g></svg>